<svg viewBox="0 0 64 64" xml:space="preserve" xmlns="http://www.w3.org/2000/svg"><g fill="none" stroke="#7c52de" stroke-linecap="round" stroke-linejoin="round" stroke-miterlimit="10" class="stroke-231f20"><g stroke-width="2"><path d="m10.2 41.005-3.739 1.874M9.267 43.811l-1.873-3.738"></path></g><g stroke-width="2"><path d="m57.788 42.874-3.738 1.874M56.856 45.68l-1.874-3.738"></path></g><path d="m13.685 48.787-2.086 1.045M13.165 50.352l-1.045-2.086M41.508 7.104l-2.086 1.045M40.988 8.67l-1.045-2.087M21.45 7.101l-2.086 1.046M20.929 8.667l-1.045-2.086M52.016 48.787l-2.086 1.045M51.495 50.352l-1.045-2.086"></path></g><g fill="none" stroke="#7c52de" stroke-linecap="round" stroke-linejoin="round" stroke-miterlimit="10" stroke-width="2" class="stroke-231f20"><path d="M15.092 13.629h33.817v26.962H15.092zM32.277 40.591l-11.87 9.78M44.148 50.371l-11.871-9.78v6.699M22.329 22.548h19.342M22.329 25.589h19.342M22.329 28.631h19.342M22.329 31.673h19.342"></path></g></svg>