<svg viewBox="0 0 24 24" xmlns="http://www.w3.org/2000/svg"><path d="M20.03 3a1 1 0 0 0-.737.293l-2.035 2.035C15.688 4.546 13.913 4 12 4 8.667 4 5.734 5.632 3.62 7.35a17.03 17.03 0 0 0-2.526 2.51 8.392 8.392 0 0 0-.737 1.056C.173 11.24 0 11.458 0 12s.173.76.357 1.084c.185.323.43.674.737 1.057a17.03 17.03 0 0 0 2.525 2.51c.413.335.864.663 1.336.98l-1.662 1.662a1 1 0 0 0 0 1.414 1 1 0 0 0 1.414 0l2.035-2.035C8.312 19.454 10.087 20 12 20c3.333 0 6.266-1.632 8.38-3.35a17.03 17.03 0 0 0 2.526-2.51c.306-.382.552-.733.737-1.056.184-.324.357-.542.357-1.084s-.173-.76-.357-1.084a8.392 8.392 0 0 0-.737-1.057 17.03 17.03 0 0 0-2.525-2.51 18.455 18.455 0 0 0-1.336-.98l1.662-1.662a1 1 0 0 0 0-1.414A1 1 0 0 0 20.029 3zM12 6c1.297 0 2.567.327 3.75.836l-3.682 3.682A2 2 0 0 1 12 10a2 2 0 0 1 1.178-1.822A4 4 0 0 0 12 8a4 4 0 0 0-.06 0A4 4 0 0 0 8 12a4 4 0 0 0 .555 2.031l-2.157 2.156A15.588 15.588 0 0 1 4.881 15.1a15.195 15.195 0 0 1-2.225-2.21 6.67 6.67 0 0 1-.56-.798c-.023-.04-.022-.057-.035-.092.013-.035.012-.053.035-.092a6.67 6.67 0 0 1 .56-.799A15.196 15.196 0 0 1 4.881 8.9C6.766 7.368 9.333 6 12 6zm5.602 1.813c.54.34 1.05.708 1.517 1.087a15.196 15.196 0 0 1 2.225 2.21c.256.32.448.602.56.798.023.04.022.057.035.092-.013.035-.012.053-.035.092a6.67 6.67 0 0 1-.56.799 15.195 15.195 0 0 1-2.225 2.209C17.234 16.632 14.667 18 12 18c-1.297 0-2.567-.327-3.75-.836l1.719-1.719A4 4 0 0 0 12 16a4 4 0 0 0 4-4 4 4 0 0 0-.178-1.176A2 2 0 0 1 14 12a2 2 0 0 1-.518-.068l4.12-4.12z" fill="#7a7a7a" stroke="none" stroke-width="2" stroke-linecap="round" stroke-linejoin="round" stroke-miterlimit="4" stroke-dasharray="none" class="fill-000000"></path></svg>