<svg viewBox="0 0 91 91" xml:space="preserve" xmlns="http://www.w3.org/2000/svg"><path d="M24.018 49.415 42.149 67.54l38.119-38.122-18.123-18.126-38.127 38.123zm42.426-24.297a3.232 3.232 0 0 1 0 4.566L44.369 51.753a3.2 3.2 0 0 1-2.278.946 3.2 3.2 0 0 1-2.284-.946 3.227 3.227 0 0 1 0-4.565l22.072-22.07a3.227 3.227 0 0 1 4.565 0z" fill="#7c52de" class="fill-6ec4a7"></path><path fill="#7c52de" d="m15.72 75.578 20.143-5.185-14.752-14.752zM87.621 12.533l-8.593-8.596c-2.548-2.546-6.992-2.543-9.53 0L66.706 6.73l18.129 18.124 2.786-2.788c2.623-2.63 2.623-6.907 0-9.533z" class="fill-65b794"></path><path d="M79.585 89.554H3.461a3.318 3.318 0 0 1-3.318-3.319V5.512a3.317 3.317 0 0 1 3.318-3.318h51.113a3.315 3.315 0 0 1 3.317 3.318 3.316 3.316 0 0 1-3.317 3.318H6.779v74.086h72.806a4.706 4.706 0 0 0 4.701-4.701V36.588a3.316 3.316 0 1 1 6.635 0v41.627c.001 6.252-5.085 11.339-11.336 11.339z" fill="#7c52de" class="fill-647f94"></path></svg>